<svg width="412" height="690" viewBox="0 0 412 690" fill="none" xmlns="http://www.w3.org/2000/svg">
<mask id="mask0_118_351" style="mask-type:alpha" maskUnits="userSpaceOnUse" x="0" y="0" width="412" height="690">
<rect width="412" height="690" fill="url(#paint0_linear_118_351)"/>
</mask>
<g mask="url(#mask0_118_351)">
<g opacity="0.25">
<path d="M114.881 85.3199L121.655 114.034L128.677 121.48L138.048 124.045L132.787 133.51L139.809 155.869L136.151 161.862L135.609 169.307L142.609 174.641L140.961 181.27L136.377 181.973L135.925 179.136L128.993 182.995L122.264 180.611L119.148 182.7L108.468 182.631L78.1656 198.68L75.2302 198.203L69.7659 187.239L61.2306 177.592L41.2021 165.493L44.9278 140.547L50.8663 128.902L57.6404 124.93L56.0598 121.661L67.5304 116.304L66.3563 113.217L72.1142 108.223L73.2206 102.707L78.7979 96.6467L93.2943 102.73L104.246 95.7615L110.816 75.6272L114.881 85.3199Z" fill="#F97316"/>
<path d="M-3.86772 89.6327L0.151524 91.721L6.13522 88.9744L7.73842 92.0842H12.9318L19.1639 83.0726L28.4443 88.9064L38.8311 86.6818L44.9278 103.23L56.0597 121.639L57.6403 124.907L50.8663 128.88L44.9278 140.547L41.202 165.471L61.2305 177.569L69.7658 187.239L75.2302 198.203L73.1754 203.56L74.4399 208.69L80.8075 213.343L83.6525 219.154L83.3816 228.143L88.4621 232.865L89.975 238.562L85.9105 246.643L76.0882 245.1L73.1754 252.227L64.053 259.423L62.8563 260.354L63.2176 257.652L58.9274 256.949L58.25 252.659L54.3436 252.432L51.1147 247.302L47.389 249.367L49.4438 257.834L43.6633 270.591L33.299 266.982L36.5731 266.278L34.1119 263.418L28.0605 262.714L32.441 256.813L27.4734 258.152L28.2637 251.456L26.096 251.501L26.2541 247.279L22.98 244.26L25.2605 223.876L23.2961 209.371L16.3414 186.899L17.1091 181.383L12.5931 175.822L8.73191 171.35L8.9803 167.786L2.83856 161.249L4.26107 160.295L-0.977479 158.684L-0.661359 155.801L-3.57421 153.531L0.874067 150.512L-1.72262 146.585L-1.06782 142.862L1.16762 145.677L5.11913 145.496L5.68363 142.25L9.27385 140.434L4.08043 132.353L6.04492 129.47L2.65791 129.651L2.83856 132.353L0.80633 131.581L2.16115 125.588L-1.27103 121.116L2.22888 117.371L3.62884 108.972L0.874067 106.703L-1.8581 107.588L-7.00635 101.799L-0.322672 98.4173L-3.86772 89.6327Z" fill="#F97316"/>
<path d="M384.825 -31.4223L382.183 -29.7879L379.722 -21.4346L374.958 -17.4396L378.842 -9.6764L381.529 -16.5316L382.183 -14.9653L379.112 -4.00158L373.693 -0.347029L371.729 5.05545L374.303 7.32531L381.258 3.53459L376.109 11.0253L375.929 15.724L353.755 36.335L354.162 41.306L347.478 48.2747L340.478 51.8385L346.688 39.0361L357.458 28.1632L357.797 22.0117L363.352 18.3572L363.713 12.2511L357.571 11.8197L353.891 15.6105L352.671 19.878L355.065 24.4406L345.288 26.1884L331.762 35.4043L321.014 36.108L306.111 46.2545L302.882 43.7122L299.857 45.1196L287.279 55.9698L284.976 61.9397L281.07 62.6661L281.002 65.1403L269.283 74.1065L269.012 92.9922L272.038 99.0757L276.622 97.2143L282.831 99.5069L283.192 107.157L278.405 106.68L278.654 110.561L278.993 112.763L279.444 116.69L274.048 119.346L265.309 134.191L259.235 137.846L256.254 155.983L252.822 157.072L249.119 164.994L244.626 161.453L241.374 164.79L239.59 173.711L247.11 190.213L244.129 192.71L244.626 196.251L240.877 197.477L243.881 200.405L243.61 205.353L234.352 219.291L235.932 223.49L234.374 227.19L229.429 192.914L239.997 144.678L224.507 95.8977L254.99 71.0421L315.256 17.994L352.897 -26.383L363.826 -33.6014L386.858 -32.4891L384.825 -31.4223Z" fill="#F97316"/>
<path d="M89.9524 238.585L96.0038 241.695L96.9071 249.027L100.542 253.657L104.923 256.404L109.145 255.269L109.823 257.993L105.736 258.016L106.007 262.465L104.133 262.283V273.156L109.913 285.89L109.326 291.997L112.939 304.685L114.881 305.593L114.249 314.832L106.797 324.252L94.6716 322.3L96.3651 327.203L91.3976 325.818L87.5364 320.371L84.0139 321.347L83.6752 319.236L78.1882 318.237L75.727 307.137L78.3237 305.071L76.8334 303.097L78.843 296.514L74.598 289.931L71.5045 291.111L68.8627 288.274L65.6563 290.067L65.6337 287.706L63.8499 288.614L55.1114 278.854L56.0598 271.613L60.1919 271.477L53.9598 267.209L60.3726 263.963L56.4211 262.556L58.0017 260.331L62.6531 260.513L73.1077 252.273L76.0205 245.145L85.8429 246.689L89.9524 238.585Z" fill="#F97316"/>
<path d="M192.33 467.711L194.656 474.316L191.608 475.724L185.285 468.097L188.379 469.504L192.33 467.711ZM150.489 448.281L155.141 452.298L166.521 453.501L169.66 456.725L162.841 459.153L157.602 457.474L152.318 454.75L150.489 448.281ZM112.036 356.916L116.281 358.414L126.126 361.66L124.568 365.746L130.145 371.829L139.809 372.374L151.731 380.75L152.815 385.426L159.318 381.272L161.915 382.566L171.241 379.978L186.663 371.262L185.353 369.696L195.988 369.287L210.191 373.441L213.781 391.078L218.117 397.684L221.12 397.185L221.21 401.724L221.91 405.924L218.433 405.81L217.349 408.511L223.062 416.502L238.868 417.705L241.329 421.155L253.184 426.126L249.209 435.977L252.032 442.923L250.993 447.055L253.613 446.328L255.283 449.052L247.674 454.001L241.284 451.753L225.184 463.761L221.03 463.693L216.626 458.608L211.591 458.586L208.475 455.703L191.337 460.038L184.36 457.564L187.137 452.048L188.424 442.878L186.798 440.086L184.314 435.41L178.534 432.55L172.482 434.207L160.831 449.302L157.602 443.082L166.476 435.864L162.276 425.785L164.467 424.378L163.947 416.547L158.867 412.438L143.986 407.944L136.106 406.536L130.371 409.124L128.813 413.914L132.9 419.725L132.154 422.516L121.519 419.293L121.248 424.401L125.335 431.347L122.287 434.842L116.416 427.533L117.929 425.604L115.784 423.629L115.965 403.722L113.232 400.203L117.794 399.772L115.061 390.216L116.732 386.447L116.1 376.165L107.429 372.578L110.703 371.398L114.452 371.171L108.378 366.858L114.971 365.678L110.003 363.045L112.036 356.916Z" fill="#F97316"/>
<path d="M141.548 -102.902L152.86 -92.3016L154.599 -86.4453L158.528 -84.5385L161.757 -76.4122L162.818 -44.9284L159.296 -29.5609L160.538 -17.2579L153.018 2.01371L146.538 1.65048L138.838 15.3154L140.464 22.4203L121.858 24.7583L98.4426 16.3369L91.375 -28.1082L95.8459 -35.5762L106.029 -45.1099L103.252 -46.9259L109.575 -55.7558L116.123 -67.968L119.894 -96.2059L124.5 -98.7255L136.287 -99.2703L141.548 -102.902Z" fill="#F97316"/>
<path d="M171.037 189.668L181.808 183.857L201.904 180.452L217.868 192.029L229.429 192.846L234.374 227.122L234.939 244.918L220.691 253.544L208.227 256.041L207.436 259.9L196.982 267.368L190.411 266.596L188.108 263.713L185.692 264.439L185.037 268.003L179.595 269.365L179.008 269.955L176.637 275.38L173.453 275.857L172.799 272.679L169.705 271.408L167.718 272.316L171.376 279.602L169.299 280.669L166.454 277.083L164.67 278.831L161.622 275.312L159.522 275.88L152.048 270.523L152.206 266.278L149.722 265.347L148.502 264.235L145.725 268.23L138.387 268.049L135.519 266.823L126.464 265.597L125.516 263.6L130.664 260.626L129.942 257.38L137.235 245.713L137.054 240.378L151.415 239.062L161.938 230.55L161.509 226.078L164.873 225.351L165.37 227.576L168.26 220.539L172.889 220.744L173.431 213.185L176.14 209.371L169.005 200.382L171.173 196.819L171.037 189.668Z" fill="#F97316"/>
<path d="M427.93 337.531L442.269 342.684L440.079 344.568L443.94 346.974L445.746 347.678L448.546 348.971L446.762 346.702L448.636 342.616L451.211 344.999L455.817 347.905L451.685 338.711L454.846 337.576L459.385 338.553L460.784 343.183L465.346 340.391L471.962 343.251L471.104 347.541L474.558 347.927L477.72 347.541L483.884 350.084L492.103 358.709L491.764 359.572L492.103 363.09L495.942 363.612L504.228 374.917L508.428 376.914L510.054 376.642L513.215 379.093L514.073 384.201L511.364 384.859L511.048 390.034L515.428 396.958L519.831 398.864L521.773 413.891L519.605 417.387L517.144 417.024L515.767 423.243L496.529 407.626L472.075 393.348L414.97 370.695L402.415 384.791L391.848 384.314L391.599 381.84L393.135 378.163L398.035 376.029L399.344 374.917L399.164 371.988L397.402 369.582L396.68 362.25L398.893 360.23L399.344 357.574L404.831 359.322L400.992 353.784L404.357 352.195L405.215 347.269L409.234 347.609L410.341 342.57L412.666 344.976L419.057 338.303L421.45 340.323L423.685 338.643L425.785 337.486L427.93 337.531ZM497.116 322.118L502.829 327.203L498.742 326.794L493.774 322.572L497.116 322.118ZM498.313 312.494L499.961 312.675L497.703 315.036L499.374 316.58L496.348 317.238L497.048 319.757L490.026 320.461L498.313 312.494Z" fill="#F97316"/>
<path d="M163.925 311.268L162.525 313.856L161.757 315.036L160.154 319.508L162.841 318.237L164.263 319.916L164.941 317.737L173.386 315.49L173.228 320.257L180.431 331.38L180.476 336.646L179.821 343.16L189.982 340.255L184.202 353.92L187.069 354.851L183.885 361.025L186.053 361.638L185.376 369.741L186.685 371.307L171.263 380.024L161.938 382.612L159.341 381.318L152.838 385.472L151.754 380.796L139.832 372.42L130.167 371.875L124.59 365.792L126.148 361.706L116.303 358.46L116.507 350.833L121.835 347.496L128.068 348.359L131.432 345.884L134.209 342.729L140.441 339.665L156.97 323.049L160.786 312.766L163.925 311.268Z" fill="#F97316"/>
<path d="M81.6881 -100.451L88.7783 -98.1353L92.1201 -99.5427L94.2201 -97.0457L99.2328 -100.11L97.5619 -87.2624L102.259 -82.2231L100.136 -79.0906L103.523 -78.5912L102.1 -76.3667L104.517 -74.5962L101.649 -65.3803L109.574 -55.7558L103.252 -46.9258L106.029 -45.1099L95.8458 -35.5762L91.375 -28.1082L98.4425 16.3369L96.2974 20.6952L82.5236 21.2173L79.9269 13.84L74.169 10.2535L71.4142 8.6646L70.94 -2.4353L67.282 -9.78989L67.5304 -10.7205L68.4336 -23.2732L64.166 -28.8345L65.1595 -32.0124L66.8982 -41.0921L59.921 -48.946L65.0015 -47.8565L64.9337 -53.2816L69.811 -60.0687L70.3981 -68.4674L67.5304 -80.0667L69.3142 -85.9231L79.7236 -93.4139L81.6881 -100.451Z" fill="#F97316"/>
<path d="M255.351 298.488L269.938 326.704L272.377 325.115L276.08 328.724L280.438 329.291L281.702 351.673L270.931 366.949L268.244 366.745L263.999 370.944L259.1 383.157L249.051 384.814L232.41 398.024L221.188 401.724L221.097 397.185L218.094 397.684L213.759 391.079L210.169 373.441L195.966 369.287L185.331 369.696L186.008 361.592L183.84 360.979L187.024 354.805L184.156 353.874L189.937 340.21L179.776 343.115L180.431 336.6L187.476 331.834L188.469 312.267L195.604 306.138L200.595 305.661L205.224 309.066L213.736 326.272L214.301 315.604L216.762 315.649L219.765 308.294L224.146 308.998L224.62 313.583L228.233 313.719L232.003 317.556L234.126 326.068L228.458 340.232L229.023 346.633L242.006 337.417L238.552 333.604L239.794 328.315L237.332 318.441L239.884 308.09L246.884 301.394L255.351 298.488ZM220.668 337.168L217.981 336.759L215.181 324.161L214.007 336.169L218.343 346.429L218.004 340.073L220.872 339.392L220.668 337.168Z" fill="#F97316"/>
<path d="M321.014 468.142L321.714 471.116L324.153 470.185L325.146 473.885L328.556 475.61L330.769 472.569L336.82 474.634L341.923 476.155L343.797 471.729L347.658 475.157L346.1 477.767L350.12 477.88L351.768 482.284L349.42 482.67L354.545 484.055L356.442 481.83L363.126 487.596L361.5 492.567L358.994 491.046L358.745 493.157L366.874 501.76L349.916 517.649L350.933 523.642L346.8 530.724L339.236 529.294L334.133 522.439L320.201 516.31L312.682 506.141L313.45 496.38L311.124 488.958L319.569 474.793L318.282 473.272L319.998 471.661L318.53 469.277L321.014 468.142Z" fill="#F97316"/>
<path d="M164.737 278.831L166.521 277.083L169.366 280.669L171.444 279.603L167.786 272.316L169.773 271.408L172.866 272.679L173.521 275.857L176.705 275.381L179.076 269.955L179.663 269.365L185.105 268.003L185.76 264.44L188.176 263.713L190.479 266.596L197.05 267.368L197.14 270.614L199.917 270.841L195.401 281.555L200.03 284.551L199.308 288.455L195.063 289.817L196.35 295.855L193.708 299.782L195.672 306.161L188.537 312.289L187.543 331.856L180.498 336.623L180.453 331.357L173.25 320.234L173.408 315.467L176.615 311.018L174.176 309.861L175.982 308.499V301.121L169.118 295.242L169.931 292.087L171.828 294.198L172.257 287.956L170.428 288.387L164.737 278.831Z" fill="#F97316"/>
<path d="M158.663 38.6957L182.689 35.2454L207.098 41.2607L210.801 72.3813L224.53 95.8069L240.019 144.588L229.452 192.846L217.891 192.006L201.927 180.43L181.831 183.857L171.037 189.668L162.096 191.371L156.789 198.68L153.493 191.87L143.467 191.961L140.961 181.27L142.609 174.642L135.609 169.307L136.151 161.862L139.809 155.869L132.787 133.511L138.048 124.045L128.677 121.48L121.655 114.035L114.881 85.32L136.332 81.8244L149.293 91.9936L155.073 87.2495L165.618 60.3282L158.663 38.6957Z" fill="#F97316"/>
<path d="M233.245 -70.8054L243.994 -60.5681L245.394 -52.7368L240.539 -20.2088L252.348 -16.2364L250.135 -1.05068L226.494 8.84617L231.146 50.0226L254.99 70.9286L224.53 95.8069L210.801 72.3813L207.098 41.2607L182.689 35.2454L158.664 38.6957L152.341 27.5049L140.464 22.4203L138.838 15.3155L146.538 1.65049L153.019 2.01372L160.538 -17.2579L159.296 -29.5609L162.818 -44.9283L214.752 -53.5994L215.61 -53.8718L223.965 -57.4809L226.923 -56.2552L225.997 -60.9086L230.175 -62.384L233.245 -70.8054Z" fill="#F97316"/>
<path d="M180.634 692.456L184.179 698.699L179.392 698.04L178.534 694.93L180.634 692.456ZM189.869 681.924L195.514 692.638L194.295 699.765L197.162 698.381L200.662 704.01L197.93 706.28L192.421 702.739L190.501 696.27L184.45 694.136L185.263 683.377L189.869 681.924ZM84.1494 475.61L92.6394 479.288L106.142 478.629L115.49 481.966L124.477 481.353L137.822 486.098L160.673 480.218L159.273 494.905L145.115 517.15L175.599 531.723L198.562 546.319L217.914 553.582L218.681 622.701L216.265 664.967L218.049 696.837L212.517 691.775L204.185 690.935L196.53 690.981L196.711 687.281L193.527 683.535L195.988 681.674L199.443 683.853L198.54 679.654L196.033 672.299L192.895 671.096L190.253 673.843L185.06 671.573L166.115 647.126L165.121 641.11L168.283 634.846L166.702 629.33L156.247 616.482L154.915 611.874L144.054 609.082L142.993 594.168L139.245 591.24L144.461 580.05L141.593 575.714L140.238 569.631L140.08 567.815L135.113 554.536L121.406 532.381L114.158 530.543L107.994 525.662L100.113 526.502L100.294 519.488L97.1554 519.533L93.4524 514.925L94.2426 510.613L90.8782 501.192L92.1201 497.266L90.1105 494.36L85.8429 492.363L78.5495 495.109L79.2043 499.172L77.0366 501.079L71.0077 499.899L65.2047 493.452L63.4209 489.185L68.0046 481.648L74.1012 477.563L84.1494 475.61ZM64.7757 449.438L77.127 454.273L81.9591 454.001L83.7429 458.631L77.9624 457.746L64.7757 449.438ZM62.2241 423.493L69.6304 428.396L69.2691 431.438L65.5886 433.844L57.2565 428.351L60.8467 427.125L62.2241 423.493ZM29.596 418.613L37.0474 420.134L47.7052 427.715L51.047 425.899L61.7725 440.517L57.4372 440.291L55.563 442.969L58.9274 445.648L61.75 444.626L62.9241 448.803L60.0564 448.667L58.3178 451.413L56.0372 446.033L50.7986 444.853L47.7503 440.722L43.0537 440.313L30.9282 432.232L29.9347 423.606L26.9767 421.405L29.596 418.613ZM20.293 412.779L24.0638 416.365L22.3703 418.34L17.4479 415.117L20.293 412.779Z" fill="#F97316"/>
<path d="M174.379 485.439L187.905 496.04L193.234 494.247L195.537 493.883L200.911 495.2L208.34 493.974L211.185 490.592L221.707 504.37L222.068 502.645L228.075 506.005L240.426 523.869L246.184 523.461L250.655 525.844L250.971 539.895L255.238 541.461L261.719 538.714L269.622 544.094L269.599 549.179L261.064 554.99L258.038 561.118L260.07 574.534L257.429 580.458L259.303 589.651L256.345 602.113L268.267 619.637L267.906 621.975L268.177 626.038L264.767 632.031L264.632 632.939L261.312 640.089L254.2 645.151L250.045 645.287L251.264 651.983L245.439 657.477L245.981 665.308L252.484 671.641L241.194 671.255L243.429 683.83L241.058 682.423L238.507 681.765L238.236 677.112L234.781 677.339L232.749 682.537L223.536 684.216L218.004 696.814L216.22 664.945L218.636 622.679L217.868 553.56L198.517 546.296L175.553 531.7L145.07 517.127L159.228 494.882L160.628 480.196L164.331 477.948L169.073 479.424L170.857 479.56L174.379 485.439Z" fill="#F97316"/>
<path d="M-465.336 1384.46L-464.388 1393.77L-464.433 1396.16L-464.93 1398.36L-463.056 1412.41L-466.014 1413.79L-464.275 1416.58L-467.143 1422.83L-472.697 1427.87L-473.013 1428.68L-475.339 1429.27L-478.433 1427.39L-477.326 1421.51L-480.126 1421.01L-484.507 1411.18L-487.916 1411.05L-489 1407.28L-486.358 1408.3L-482.723 1404.8L-485.455 1396.9L-482.678 1387.76L-482.407 1394L-476.604 1389.62L-477.8 1386.46L-465.336 1384.46ZM-472.404 1375.39L-468.881 1377.36L-466.962 1382.85L-474.594 1385.08L-475.746 1381.72L-478.929 1380.56L-472.404 1375.39ZM-454.272 1367.15L-446.391 1367.28L-443.569 1371.44L-452.917 1371.84L-455.694 1368.19L-454.272 1367.15ZM-462.604 1355.91L-458.494 1356.93L-456.507 1361.18L-463.485 1361.04L-462.604 1355.91ZM-424.376 1343.31L-419.544 1348.85L-420.47 1362.2L-429.118 1367.35L-434.13 1362.31L-433.318 1346.63L-431.556 1343.56L-424.376 1343.31ZM-439.505 1345.4L-434.921 1344.88L-435.214 1349.19L-441.221 1353.55L-448.446 1354.64L-450.591 1349.64L-445.691 1348.9L-439.414 1340.88L-439.505 1345.4ZM-122.774 967.707L-123.068 970.159L-120.765 968.638L-124.264 970.817L-126.229 973.813L-129.955 973.995L-127.268 970.431L-129.684 967.82L-122.774 967.707ZM-13.5997 957.152L-8.13526 962.1L-7.0966 959.876L-1.18064 965.891L11.6449 965.573L15.0996 971.407L12.119 973.836L10.832 970.658L9.54489 974.608L11.69 977.105L5.84176 979.148L5.32243 976.31L2.97412 981.486L-0.322583 979.465L-1.31611 974.562L-4.43213 973.927L1.95799 984.981L0.129011 986.502L-9.12879 984.8L-6.14824 988.681L-17.506 991.995L-24.4832 988.227L-24.1219 977.649L-26.7187 979.216L-26.5606 973.473L-24.3026 971.384L-19.5608 974.449L-17.7544 968.025L-12.8093 963.235L-13.5997 957.152ZM189.982 914.25L191.472 916.52L188.424 919.471L191.788 922.899L188.063 925.623L189.101 930.798L182.034 932.364L178.128 927.212L179.099 922.831L185.873 920.084L186.776 914.863L189.982 914.25ZM-101.617 895.092L-99.4038 896.295L-102.023 901.675L-100.126 905.852L-101.436 907.622L-106.404 901.879L-105.252 895.773L-102.678 896.84L-101.617 895.092ZM-33.4475 889.213L-30.8056 893.935L-34.7797 894.093L-33.4475 889.213ZM-36.6764 886.762L-35.1636 888.101L-38.8441 894.048L-39.4764 889.758L-36.6764 886.762ZM-53.7018 882.176L-52.8438 884.265L-47.0633 884.628L-48.1471 888.805L-44.0601 894.774L-45.6182 899.791L-46.3859 895.092L-49.6148 898.066L-51.5341 893.299L-57.5404 891.619L-53.7018 882.176ZM-36.812 878.159L-34.9829 883.402L-38.4377 886.285L-37.3087 883.039L-40.1312 878.658L-36.812 878.159ZM175.282 869.873L176.321 873.119L172.754 876.615L169.321 876.365L168.26 873.21L175.282 869.873ZM-50.2922 866.718L-46.4988 867.717L-46.973 871.848L-50.1567 873.732L-51.7599 872.03L-52.0761 875.435L-57.2469 875.934L-58.3533 870.055L-52.9567 869.737L-52.4147 866.786L-50.2922 866.718ZM-35.6152 845.245L-38.5055 855.028L-42.0053 848.945L-35.6152 845.245ZM-71.0659 828.107L-66.6853 829.628L-65.7822 843.451L-61.379 845.177L-58.7372 842.112L-56.3211 850.239L-61.2661 869.783L-67.4079 876.706L-61.4468 887.329L-57.5404 884.787L-59.1888 888.623L-56.1405 897.748L-57.4049 899.609L-61.4242 896.681L-67.0918 897.612L-70.2078 919.766L-66.0531 922.036L-65.737 927.371L-61.8306 930.094L-55.305 925.895L-51.2406 928.506L-51.3761 930.775L-54.5147 930.185L-51.9406 932.546L-54.876 935.043L-51.918 937.222L-53.2954 941.489L-51.0148 944.826L-55.9598 954.905L-49.2761 954.859L-45.3246 950.342L-41.6892 953.248L-43.0666 954.723L-39.9957 956.244L-47.3568 955.767L-44.5795 959.853L-46.8826 962.123L-42.1634 964.325L-39.5893 974.857L-34.1927 975.175L-35.9087 977.695L-33.3798 976.946L-32.025 980.941L-38.528 983.438L-45.7085 991.746L-53.476 995.128L-56.0501 1003.44L-65.7822 1005.37L-74.6561 1003L-79.4431 1006.93L-88.4751 1007.95L-91.7718 1013.04L-96.491 1013.56L-109.565 1031.9L-113.674 1052.49L-117.152 1057.48L-153.844 1068.06L-165.857 1069.58L-165.699 1067.15L-173.624 1070.15L-178.615 1075.6L-186.676 1075.55L-190.176 1077.25L-191.779 1091.85L-186.45 1099.09L-187.082 1111.46L-193.45 1109.99L-192.366 1106.15L-194.601 1100.43L-196.114 1103.47L-199.004 1102.45L-200.043 1104.63L-199.456 1113.16L-193.856 1113.91L-193.63 1115.21L-192.818 1118.43L-188.527 1117.34L-188.663 1120.79L-192.705 1123.51L-193.472 1125.74L-201.94 1137.32L-206.366 1139.77L-208.691 1147.51L-211.378 1147.6L-220.568 1161.42L-220.93 1162.44L-225.152 1166.76L-224.768 1171.75L-233.326 1180.26L-233.236 1182.71L-236.894 1181.38L-240.8 1185.67L-242.719 1185.1L-244.368 1190.8L-248.477 1191.2L-256.967 1201.9L-265.074 1201.12L-277.064 1205.3L-279.006 1203.37L-288.986 1209.05L-292.96 1207.32L-296.144 1214.43L-296.528 1222.76L-301.969 1223.6L-299.305 1226.25L-300.028 1228.93L-303.686 1229.91L-302.421 1232.24L-304.182 1232.2L-310.64 1247.09L-313.192 1247.07L-312.853 1251.24L-331.933 1259.78L-339.656 1269.47L-344.917 1270.06L-349.455 1278.6L-355.687 1283.2L-363.794 1283.48L-375.129 1288.18L-384.612 1285.43L-389.512 1290.63L-387.593 1298.3L-395.248 1314.1L-397.506 1315.16L-402.496 1310.69L-405.296 1314.12L-406.538 1315.16L-416.134 1315.19L-416.902 1318.25L-434.198 1329.49L-438.376 1335.96L-443.163 1337.18L-441.446 1338.98L-443.163 1341.59L-447.633 1341.79L-448.175 1335.8L-442.146 1325.63L-441.627 1310.49L-437.947 1307.47L-438.308 1302.91L-433.905 1300.98L-435.598 1296.07L-432.708 1297.28L-428.96 1288.24L-422.682 1285.38L-421.034 1281.25L-424.444 1281.61L-418.437 1273.69L-407.757 1271.38L-408.728 1266.88L-402.722 1262.59L-400.802 1255.31L-398.025 1254.44L-390.483 1242.32L-388.338 1242.23L-387.458 1238.4L-381.677 1237.62L-375.468 1231.31L-374.158 1223.35L-368.468 1218.92L-364.787 1219.19L-364.11 1216.42L-362.507 1220.74L-355.01 1220.05L-352.91 1210.7L-349.546 1207.43L-350.313 1203.98L-344.443 1198.44L-341.981 1200.01L-338.21 1195.77L-336.201 1196.61L-328.953 1188L-321.298 1189.57L-316.579 1184.76L-316.15 1190.64L-310.189 1190.89L-309.556 1187.28L-305.537 1185.1L-304.973 1181.51L-302.082 1181.81L-299.17 1178.76L-299.102 1175.93L-292.689 1174.45L-294.473 1169.21L-292.644 1165.42L-283.115 1163.22L-281.128 1153.16L-274.602 1149.6L-264.645 1137.77L-259.564 1134.86L-257.735 1123.61L-255.048 1122.22L-252.045 1124.24L-246.897 1121.22L-244.706 1114.32L-229.736 1105.17L-220.365 1091.12L-214.269 1086.9L-212.756 1083.2L-214.336 1079.46L-207.788 1076.23L-207.991 1071.96L-204.717 1069.4L-207.811 1064.63L-205.282 1065.56L-198.033 1058.91L-194.985 1059.28L-194.398 1053.56L-191.259 1051.33L-188.572 1043.16L-186.608 1053.69L-186.292 1055.44L-186.337 1061.34L-183.289 1061.48L-180.918 1060.27L-180.737 1053.71L-175.995 1047.7L-181.234 1045.91L-181.347 1033.33L-175.995 1034.17L-171.66 1030.29L-166.692 1032.65L-159.489 1030.61L-157.344 1023.32L-159.805 1021.28L-155.741 1020.32L-160.596 1017.17L-158.857 1015.42L-155.131 1017.96L-154.183 1013.72L-151.18 1015.19L-148.764 1013.36L-150.412 1011.79L-148.493 1008.23L-145.151 1008.82L-146.935 1002.87L-153.596 1007.77L-155.154 1003.66L-150.773 1000.19L-151.767 997.557L-147.567 998.101L-145.445 996.036L-139.167 1000.76L-137.09 997.216L-139.077 995.037L-134.584 995.809L-132.348 993.176L-135.329 991.655L-137.406 990.338L-136.842 988.273L-135.984 985.412L-134.493 987.001L-133.567 984.595L-130.745 984.641L-129.571 986.729L-132.213 988.908L-129.097 991.201L-130.88 996.966L-126.703 1001.85L-126.229 998.896L-120.652 996.898L-114.103 985.299L-107.555 984.868L-105.433 979.942L-111.891 974.313L-105.839 975.788L-97.2813 967.003L-93.2169 942.942L-99.2232 936.473L-104.484 938.085L-106.471 926.962L-115.21 924.056L-114.849 922.082L-109.294 922.263L-109.994 920.311L-109.475 917.928L-107.036 918.064L-110.129 914.205L-114.51 914.659L-111.484 909.915L-114.329 909.052L-113.403 906.51L-109.836 907.1L-109.52 913.774L-107.194 912.775L-108.458 910.142L-105.907 907.599L-102.859 909.529L-104.394 911.504L-101.368 913.683L-104.01 916.656L-100.533 916.974L-105.997 920.47L-98.9974 920.379L-103.107 924.329L-98.3652 927.279L-97.5297 924.442L-95.0911 930.457L-93.0588 927.665L-91.0718 928.664L-92.946 932.182L-86.2171 933.249L-83.3494 936.722L-84.4784 939.582L-81.4075 937.835L-78.9463 945.666L-73.8206 944.758L-78.4721 932.319L-78.7431 927.121L-75.7174 927.529L-75.2883 924.987L-81.4753 922.876L-81.8365 920.311L-88.5654 922.558L-89.8299 920.061L-92.404 920.379V916.543L-94.8427 916.702L-90.3492 909.393L-92.2911 907.599L-95.8813 909.96L-98.8167 908.326L-98.2974 906.782L-99.878 897.68L-97.0781 893.185L-93.6685 899.995L-88.2493 898.111L-95.791 892.595L-93.1717 889.644L-96.5813 889.599L-96.1297 881.2L-93.7137 884.718L-91.4331 884.106L-92.5847 886.625L-88.4977 891.619L-81.3172 892.709L-81.7237 880.61L-79.6011 875.752L-82.3559 874.663L-83.9817 876.842L-84.6816 870.895L-81.2495 863.903L-82.3107 846.879L-79.714 845.948L-78.7657 841.159L-75.6045 843.519L-71.9465 838.321L-71.0659 828.107ZM-15.9254 812.149L-7.99979 813.829L-6.57727 816.757L-6.89339 823.431L-13.0803 835.734L-15.0899 836.097L-18.0705 832.079L-14.2996 829.877L-14.5706 827.471L-17.5512 829.56L-20.6221 827.948L-22.6768 833.055L-25.2961 828.515L-30.2637 826.609L-29.067 823.272L-32.7701 821.456L-30.0379 818.914L-30.1734 821.138L-23.2639 825.814L-23.8284 822.432L-20.6221 822.477L-24.3252 819.413L-22.0672 819.05L-22.1575 816.598L-18.1157 823.453L-16.0157 822.977L-16.8963 820.117L-12.6287 822.591L-14.3899 818.346L-10.5513 817.892L-15.9254 812.149ZM37.928 771.336L43.4376 771.518L43.9343 774.4L37.341 773.424L37.928 771.336ZM43.4376 768.317L46.3052 769.566L46.7568 773.651L41.7215 768.362L43.4376 768.317ZM-0.932254 735.834L2.43219 739.33L10.3578 740.919L5.345 741.804L7.12884 746.231L5.43534 746.934L8.39332 747.865L8.25784 744.052L10.9449 745.731L13.5416 743.075L18.464 743.643L19.1866 746.253L12.548 749.159L18.3511 749.817L21.3317 754.811L22.4381 752.7L26.7057 754.97L17.9447 758.17L22.9349 758.67L19.3898 761.121L19.3672 764.345L21.4672 763.005L26.5251 767.318L20.2027 772.471L24.0187 772.652L22.5736 779.008L11.261 787.611L9.43201 787.838L7.42239 788.882L5.09665 788.406L6.74498 786.59L4.59989 785.705L4.41924 776.784L6.97076 774.922L14.9867 767.477L12.119 767.818L10.1997 766.887L8.55139 765.253L8.41589 771.245L2.92895 771.926L-0.819347 766.501L-3.03218 760.236L0.399995 757.943L-6.96112 749.272L-6.66757 743.802L-10.7997 740.556L-9.60298 739.239L-3.48378 744.46L-2.91927 741.146L-6.14824 739.58L-6.46436 736.72L-0.932254 735.834ZM55.2017 734.495L59.1081 737.015L59.8984 742.644L55.2469 747.343L61.7048 747.479L62.608 751.202L62.3145 753.472L56.5566 755.878L54.9308 757.285L45.7859 742.463L55.2017 734.495ZM-2.44511 676.953L2.38702 678.587L1.93542 682.037L4.53215 684.602L2.97412 686.6L16.8608 689.256L22.3252 693.727L24.7864 699.947L30.8831 698.222L30.6798 702.33L41.2247 711.569L45.0182 712.114L45.2665 708.754L49.3987 709.662L48.1568 704.895L50.3471 698.835L47.9536 694.976L50.1212 693.909L51.0696 698.585L54.3211 698.381L54.8856 709.776L57.0308 710.865L59.5371 707.71L61.4113 712.613L63.8951 711.909L64.866 715.337L68.9982 716.517L70.3981 722.533L67.7111 725.552L70.2852 729.728L69.5853 733.156L66.7402 731.726L63.579 734.972L55.9018 730.795L51.2954 734.813L43.573 730.5L42.3086 727.004L40.1183 728.344L36.1216 726.528L34.7668 728.707L37.0022 731.408L35.2184 733.428L34.0443 735.403L30.8153 738.467L27.5864 734.132L28.896 732.134L23.3865 728.843L22.2575 732.702L17.8995 733.882L16.8383 730.909L11.0126 730.386L10.0191 727.867L9.38685 721.171L6.74498 722.487L4.28377 719.536L3.51602 717.176L3.1999 708.981L-1.85801 704.555L-2.53542 698.085L-5.13214 697.859L-9.73846 707.074L-10.3255 702.33L-5.99016 694.522L-8.67719 692.706L-8.63202 689.709L-7.32238 686.917L-5.31275 683.444L-7.79657 679.972L-2.44511 676.953Z" fill="#F97316"/>
<path d="M75.2303 198.203L78.1882 198.68L108.468 182.631L119.148 182.722L122.264 180.634L128.993 183.017L135.925 179.159L136.377 181.996L140.961 181.292L143.49 191.984L153.515 191.893L156.812 198.703L162.118 191.393L171.06 189.691L171.286 196.818L169.118 200.382L176.253 209.371L173.544 213.185L173.002 220.743L168.373 220.539L165.483 227.576L164.986 225.351L161.622 226.078L162.051 230.549L151.528 239.062L137.167 240.378L137.348 245.713L130.055 257.38L130.777 260.626L123.168 265.007L121.745 266.028L116.236 261.034L110.726 258.22L111.855 256.086L109.168 255.292L104.946 256.427L100.565 253.68L96.9297 249.049L96.0265 241.717L89.975 238.608L88.4622 232.91L83.3817 228.189L83.6526 219.2L80.8075 213.389L74.44 208.735L73.1755 203.605L75.2303 198.203Z" fill="#F97316"/>
<path d="M12.7513 -2.75316L14.3544 1.78669L18.035 3.26208L14.1286 9.57253L17.3801 15.6786L13.3158 18.9246L8.59651 11.0253L5.97725 11.2296L6.51915 8.75545L3.92246 6.34929L1.70962 8.16523L0.919308 5.82722L5.16437 3.94319L4.21598 1.71868L6.22563 -0.0291771L5.72887 3.48921L8.32556 4.80575L8.82232 -1.86786L12.7513 -2.75316ZM0.151595 91.7437L-3.86765 89.6554L-4.7257 88.0664L0.33224 84.0941L-8.09014 64.4138L-10.6417 61.7581L-11.0481 63.7556L-16.2189 64.3003L-17.5286 70.0206L-20.7801 68.4316L-22.8801 71.4052L-26.6058 62.7795L-25.0252 54.8347L-22.6091 52.7919L-25.6348 48.5698L-24.5736 38.5822L-21.3446 33.9969L-23.0381 28.8442L-25.9961 27.6184L-21.0737 15.9283L-22.8575 14.3167L-21.8188 4.07929L-15.948 -4.41019L-9.35462 -4.31923L-4.88378 -10.3799L1.9354 -6.15784L0.377375 15.4972L2.65798 14.1353L7.08365 16.5414L8.30299 17.2451L10.9449 18.4481L10.2674 21.5579L15.0093 23.737L17.6285 28.0499L19.2317 24.1229L21.5123 25.4395L22.1897 26.3929L26.3219 26.3019V28.9577L28.7379 27.6865L32.5991 31.9994L31.7411 33.7472V35.3361L28.9637 38.4006L33.1184 43.2582L30.7024 42.9858L30.3411 44.9834L38.0635 50.0453L51.0922 50.817L67.7111 45.1876L68.1627 46.7992L83.7881 29.0939L82.5462 21.24L96.32 20.7179L98.4651 16.3596L121.881 24.781L140.487 22.443L152.364 27.5276L158.686 38.6957L165.641 60.3507L155.096 87.272L149.315 92.0162L136.354 81.8469L114.903 85.3426L110.839 75.65L104.268 95.8069L93.3169 102.753L78.8205 96.6922L73.2432 102.753L72.1368 108.246L66.3789 113.263L67.553 116.35L56.0823 121.707L44.9504 103.298L38.8538 86.7499L28.467 88.9745L19.1866 83.1407L12.9545 92.1524H7.76106L6.15786 89.0425L0.151595 91.7437ZM3.56117 -16.0776L8.16748 -10.4255L8.21265 -6.24887L-0.0516515 -8.92737L0.2419 -15.1469L3.56117 -16.0776Z" fill="#F97316"/>
<path d="M302.318 405.334L307.782 406.037L307.195 410.623L309.837 412.915L308.053 416.138L306.292 416.116L302.002 415.457L299.631 413.778L299.315 409.465L302.318 405.334ZM336.549 361.524L363.261 381.045L373.535 394.393L368.229 395.55L351.61 385.063L348.426 380.591L339.846 376.982L327.901 363.068L330.678 355.94L336.549 361.524ZM314.037 344.409L318.101 345.158L312.75 353.738L309.995 346.293L314.037 344.409ZM409.46 272.43L414.112 277.106L411.741 279.466L392.548 281.35L397.222 275.403L409.46 272.43ZM364.142 255.632L372.339 252.886L374.755 255.314L373.535 259.151L380.558 262.828L384.487 262.079L384.532 272.974L382.116 274.064L379.971 268.934L359.874 259.763L357.707 253.498L361.703 255.246L364.142 255.632ZM346.123 247.097L346.688 249.004L352.536 249.117L356.126 253.544L352.423 251.387L349.375 253.771L346.304 252.795L344.317 248.119L346.123 247.097ZM334.065 216.862L338.107 218.133L337.452 220.199L341.088 218.905L345.513 221.47L343.842 225.261L350.458 225.578L351.497 232.933L351.136 234.794L347.32 227.962L343.933 228.688L340.794 233.773L345.333 232.002L345.649 240.129L338.92 243.465L336.956 242.308L339.191 253.498L343.797 254.86L346.033 258.787L348.313 274.972L342.736 283.189L332.146 289.976L328.262 287.661L326.343 281.555L326.614 273.383L328.804 276.379L331.965 275.471L327.201 260.081L322.211 254.474L314.985 234.227L313.292 234.068L314.466 238.858L312.795 237.428L311.011 239.652L309.566 237.45L312.501 226.486L315.301 225.351L315.482 219.995L318.733 219.904L320.269 222.945L331.017 217.021L333.32 219.336L334.065 216.862ZM234.374 227.122L235.932 223.422L234.352 219.223L243.61 205.285L243.881 200.337L240.877 197.409L244.626 196.183L244.129 192.642L247.11 190.145L251.693 193.345L254.019 192.142L257.383 196.001L261.425 217.361L271.383 232.025L273.709 245.168L278.925 251.501L277.051 255.995L298.728 278.241L293.354 277.174L290.892 277.265L282.515 283.121L279.918 279.852L277.344 285.527L286.625 328.701L297.576 340.505L297.87 349.516L302.769 354.306L301.979 361.161L297.802 365.565L298.682 368.084L304.982 375.439L303.469 373.623L333.343 397.707L358.474 408.716L373.355 410.01L380.196 413.324L382.206 405.356L374.958 402.519L372.135 396.595L391.374 402.814L392.48 400.34L390.38 397.139L394.128 395.687L395.212 392.441L389.703 392.781L389.319 389.127L373.716 379.933L369.2 371.92L369.471 368.788L373.151 372.261L372.18 368.221L377.645 363.545L380.558 362.886L382.545 365.792L383.177 354.715L386.948 354.215L387.67 355.986L384.803 366.45L387.151 368.379L386.225 374.712L389.183 375.439L393.203 372.511L391.69 381.727L391.938 384.201L402.505 384.677L415.06 370.581L472.165 393.235L432.13 404.199L428.811 402.338L428.224 408.693L416.008 408.148L410.815 403.677L421.969 421.291L428.314 426.626L426.011 427.647L425.808 434.298L428.247 440.722L422.94 440.745L421.066 444.104L424.792 452.208L423.821 455.181L431.814 462.899L431.747 465.782L446.22 475.066L446.424 477.427L443.556 477.699L437.776 469.709L434.795 469.686L448.907 489.049L453.175 500.353V517.945L455.478 518.966L457.488 526.389L450.104 528.954L440.463 536.83L434.75 534.016L424.973 523.256L428.021 516.923L425.808 514.472L427.931 511.793L426.915 505.369L422.308 495.314L409.957 482.488L408.06 475.883L396.567 469.822L397.628 467.121L394.964 464.783L389.77 464.602L388.212 467.394L385.051 466.168L387.783 464.238L385.864 462.105L376.358 462.831L375.455 456.793L366.919 442.992L364.887 442.878V438.634L358.452 431.938L354.207 431.007L351.181 433.64L346.259 430.031L346.733 428.283L339.146 428.396L337.701 422.585L324.446 418.885L321.262 413.233L318.598 414.958L315.301 412.121L313.676 413.982L311.056 410.101L312.253 405.629L310.401 404.199L306.856 405.81L301.211 400.953L292.405 402.133L291.412 404.131L294.234 408.693L280.709 411.145L279.286 414.209L277.051 411.962L259.303 420.542L253.138 425.945L241.284 420.974L238.823 417.523L223.017 416.32L217.304 408.33L218.388 405.629L221.865 405.743L221.165 401.543L232.387 397.843L249.029 384.632L259.077 382.975L263.977 370.763L268.222 366.564L270.909 366.768L281.68 351.491L280.415 329.11L276.057 328.543L272.354 324.933L269.915 326.522L255.329 298.307L235.887 263.645L234.939 244.737L234.374 227.122Z" fill="#F97316"/>
<path d="M245.393 -52.7368L269.802 -50.7393L302.205 -9.74446L355.742 -34.2823L363.826 -33.6922L352.897 -26.4738L315.256 17.8805L254.99 70.9286L231.145 50.0226L226.494 8.84619L250.135 -1.05066L252.348 -16.2364L240.539 -20.2088L245.393 -52.7368Z" fill="#F97316"/>
<path d="M218.026 340.051L218.365 346.406L214.03 336.146L215.204 324.139L218.004 336.737L222.046 338.553L218.026 340.051ZM221.481 309.974L221.346 310.065L221.594 309.815L221.481 309.974ZM220.623 310.088V310.201L220.984 309.679L220.623 310.088ZM220.443 308.612L220.623 308.657L220.465 308.771L220.443 308.612ZM234.961 244.918L235.91 263.827L255.351 298.488L246.884 301.485L239.884 308.181L237.332 318.532L239.794 328.406L238.552 333.695L242.006 337.508L229.023 346.724L228.458 340.323L234.126 326.159L232.003 317.646L228.233 313.81L224.62 313.674L224.146 309.089L219.765 308.385L216.762 315.74L214.301 315.694L213.736 326.363L205.224 309.157L200.595 305.752L195.604 306.229L193.64 299.85L196.282 295.923L194.995 289.885L199.24 288.523L199.962 284.619L195.334 281.623L199.85 270.909L197.072 270.682L196.982 267.436L207.436 259.968L208.227 256.109L220.691 253.612L234.961 244.918Z" fill="#F97316"/>
<path d="M331.83 715.564L335.962 720.83L334.788 726.596L327.585 721.398L328.353 717.811L331.83 715.564ZM431.882 647.149L449.675 650.826L456.833 664.559L454.146 676.703L446.22 684.285L446.311 687.031L442.201 682.196L434.411 679.495L430.911 671.278L415.918 665.263L411.786 659.179L412.418 655.389L417.837 650.213L431.882 647.149ZM388.912 627.06L390.967 628.24L392.593 638.114L395.912 641.179L396.048 647.149L391.803 651.802L386.767 649.827L383.087 642.995L385.187 640.884L382.274 635.89L386.09 635.186L388.912 627.06ZM361.274 618.82L367.529 621.294L368.906 625.993L363.532 625.448L362.29 628.24L365.158 634.437L365.203 641.701L360.687 648.374L356.781 679.427L349.081 693.659L349.442 699.72L351.407 698.744L353.642 701.627L352.152 703.261L349.917 701.718L346.371 705.713L344.768 715.337L339.665 708.119L340.794 705.009L336.798 705.667L335.51 700.219L337.023 691.889L338.243 698.721L340.478 700.061L345.242 692.683L339.078 687.644L336.933 688.711V685.465L334.065 685.238L333.207 681.924L330.43 683.74L329.436 678.474L332.214 675.772L330.43 674.047L332.801 666.08L340.23 663.424L343.255 657.522L344.926 649.146L341.043 636.344L342.601 631.736L348.991 627.741L354.839 627.446L361.771 621.726L361.274 618.82ZM356.284 591.422L352.265 600.456L347.388 600.048L347.455 597.233L356.284 591.422ZM293.805 572.695L299.089 576.145L295.679 581.798L289.899 576.055L293.805 572.695ZM355.674 570.584L358.587 571.379L356.984 577.916L351.813 579.982L350.91 574.625L347.659 572.377L355.674 570.584Z" fill="#F97316"/>
</g>
</g>
<defs>
<linearGradient id="paint0_linear_118_351" x1="274.831" y1="651.5" x2="274.831" y2="353" gradientUnits="userSpaceOnUse">
<stop stop-color="white" stop-opacity="0"/>
<stop offset="1"/>
</linearGradient>
</defs>
</svg>
